<svg width="960" height="720" viewBox="0 0 960 720" fill="none" xmlns="http://www.w3.org/2000/svg">
  <rect width="960" height="720" fill="url(#bg)"/>
  <ellipse cx="480" cy="575" rx="260" ry="48" fill="black" opacity=".45"/>
  <g filter="url(#glow)">
    <circle cx="730" cy="255" r="5" fill="#ff1834"/>
    <path d="M730 184v118" stroke="#ff1834" stroke-width="2" stroke-linecap="round"/>
  </g>
  <g transform="translate(255 132) rotate(-21 245 240)">
    <rect x="132" y="72" width="338" height="452" rx="38" fill="#050b12"/>
    <rect x="144" y="83" width="314" height="430" rx="31" fill="url(#phoneBody)" stroke="#6b7280" stroke-width="4"/>
    <rect x="174" y="111" width="256" height="372" rx="22" fill="url(#screen)" opacity=".94"/>
    <rect x="210" y="139" width="150" height="154" rx="24" fill="#0a111b" stroke="#1f2937" stroke-width="4"/>
    <circle cx="248" cy="180" r="29" fill="url(#lens)" stroke="#475569" stroke-width="6"/>
    <circle cx="323" cy="178" r="29" fill="url(#lens)" stroke="#475569" stroke-width="6"/>
    <circle cx="248" cy="255" r="29" fill="url(#lens)" stroke="#475569" stroke-width="6"/>
    <circle cx="325" cy="255" r="12" fill="#ff1834"/>
    <path d="M181 404c66 31 143 38 239 17" stroke="#94a3b8" stroke-width="5" opacity=".45"/>
    <path d="M166 101l278 405" stroke="white" stroke-width="6" opacity=".13"/>
  </g>
  <defs>
    <linearGradient id="bg" x1="0" y1="0" x2="960" y2="720" gradientUnits="userSpaceOnUse">
      <stop stop-color="#05070b"/>
      <stop offset=".48" stop-color="#0c1621"/>
      <stop offset="1" stop-color="#111827"/>
    </linearGradient>
    <linearGradient id="phoneBody" x1="144" y1="83" x2="458" y2="513" gradientUnits="userSpaceOnUse">
      <stop stop-color="#1f2937"/>
      <stop offset=".35" stop-color="#0b1220"/>
      <stop offset="1" stop-color="#020617"/>
    </linearGradient>
    <linearGradient id="screen" x1="174" y1="111" x2="430" y2="483" gradientUnits="userSpaceOnUse">
      <stop stop-color="#111827"/>
      <stop offset=".55" stop-color="#0f172a"/>
      <stop offset="1" stop-color="#020617"/>
    </linearGradient>
    <radialGradient id="lens" cx="0" cy="0" r="1" gradientUnits="userSpaceOnUse" gradientTransform="translate(248 180) rotate(90) scale(29)">
      <stop stop-color="#e5e7eb"/>
      <stop offset=".38" stop-color="#334155"/>
      <stop offset="1" stop-color="#020617"/>
    </radialGradient>
    <filter id="glow" x="680" y="134" width="100" height="218" filterUnits="userSpaceOnUse" color-interpolation-filters="sRGB">
      <feGaussianBlur stdDeviation="12"/>
      <feBlend in="SourceGraphic"/>
    </filter>
  </defs>
</svg>
