<svg width="520" height="520" viewBox="0 0 520 520" fill="none" xmlns="http://www.w3.org/2000/svg">
  <ellipse cx="270" cy="430" rx="172" ry="30" fill="#020617" opacity=".62"/>
  <g transform="translate(88 80) rotate(8 182 168)">
    <rect x="54" y="18" width="292" height="332" rx="28" fill="#06070a" stroke="url(#edge)" stroke-width="7"/>
    <rect x="72" y="40" width="256" height="288" rx="18" fill="#020617"/>
    <path d="M98 105c38-38 82-36 126 4 32 29 62 35 96 6" stroke="#f97316" stroke-width="9" stroke-linecap="round" opacity=".96"/>
    <path d="M104 182c48-44 102-40 159 12 27 24 52 27 78 8" stroke="#38bdf8" stroke-width="8" stroke-linecap="round" opacity=".92"/>
    <path d="M96 254c38-34 83-33 134 3 38 27 72 31 104 11" stroke="#f43f5e" stroke-width="8" stroke-linecap="round" opacity=".9"/>
    <path d="M340 56c33 22 52 63 52 116v153" stroke="#111827" stroke-width="28" stroke-linecap="round"/>
    <path d="M344 65c24 22 38 58 38 106v138" stroke="#475569" stroke-width="8" stroke-linecap="round" opacity=".64"/>
    <path d="M80 47l242 271" stroke="white" stroke-width="5" opacity=".09"/>
  </g>
  <defs>
    <linearGradient id="edge" x1="54" y1="18" x2="346" y2="350" gradientUnits="userSpaceOnUse">
      <stop stop-color="#f8fafc"/>
      <stop offset=".23" stop-color="#525252"/>
      <stop offset=".62" stop-color="#111827"/>
      <stop offset="1" stop-color="#020617"/>
    </linearGradient>
  </defs>
</svg>
