<svg width="640" height="520" viewBox="0 0 640 520" fill="none" xmlns="http://www.w3.org/2000/svg">
  <rect width="640" height="520" rx="36" fill="url(#bg)"/>
  <ellipse cx="320" cy="420" rx="170" ry="28" fill="#020617" opacity=".32"/>
  <path d="M194 258c0-100 62-166 126-166s126 66 126 166" stroke="#111827" stroke-width="34" stroke-linecap="round"/>
  <path d="M219 250c0-78 48-130 101-130s101 52 101 130" stroke="#64748b" stroke-width="10" stroke-linecap="round" opacity=".7"/>
  <rect x="148" y="238" width="96" height="160" rx="34" fill="url(#cup)" stroke="#1f2937" stroke-width="8"/>
  <rect x="396" y="238" width="96" height="160" rx="34" fill="url(#cup)" stroke="#1f2937" stroke-width="8"/>
  <rect x="176" y="270" width="45" height="92" rx="18" fill="#020617" opacity=".8"/>
  <rect x="419" y="270" width="45" height="92" rx="18" fill="#020617" opacity=".8"/>
  <path d="M180 214c67-60 191-67 280 4" stroke="#d70018" stroke-width="5" opacity=".5"/>
  <defs>
    <linearGradient id="bg" x1="0" y1="0" x2="640" y2="520" gradientUnits="userSpaceOnUse">
      <stop stop-color="#f8fafc"/>
      <stop offset=".47" stop-color="#dbeafe"/>
      <stop offset="1" stop-color="#cbd5e1"/>
    </linearGradient>
    <linearGradient id="cup" x1="148" y1="238" x2="492" y2="398" gradientUnits="userSpaceOnUse">
      <stop stop-color="#334155"/>
      <stop offset=".52" stop-color="#111827"/>
      <stop offset="1" stop-color="#020617"/>
    </linearGradient>
  </defs>
</svg>
